<svg width="28" height="28" viewBox="0 0 28 28" fill="none" xmlns="http://www.w3.org/2000/svg">
<mask id="mask0_644_7487" style="mask-type:luminance" maskUnits="userSpaceOnUse" x="3" y="3" width="22" height="22">
<path fill-rule="evenodd" clip-rule="evenodd" d="M3.5 3.5H24.5V24.4991H3.5V3.5Z" fill="white"/>
</mask>
<g mask="url(#mask0_644_7487)">
<path fill-rule="evenodd" clip-rule="evenodd" d="M21.0124 19.846C21.0143 20.0776 20.9397 20.1442 20.7143 20.1389C20.074 20.1267 19.4336 20.117 18.7943 20.1425C18.4733 20.1556 18.3767 20.0723 18.3811 19.7382C18.4005 18.2988 18.3881 16.8585 18.3907 15.4184C18.3907 15.0237 18.3645 14.6325 18.2197 14.2605C17.9741 13.6325 17.5504 13.2072 16.848 13.1457C16.1006 13.0799 15.5577 13.4202 15.1911 14.051C14.9508 14.4641 14.8955 14.9254 14.8964 15.3972C14.8999 16.8524 14.8885 18.3066 14.9051 19.7609C14.9095 20.0741 14.8138 20.1521 14.5139 20.1416C13.8744 20.1196 13.2341 20.125 12.5939 20.1399C12.3483 20.146 12.2737 20.0723 12.2737 19.8232C12.2817 16.827 12.2807 13.8307 12.2755 10.8346C12.2755 10.6197 12.3194 10.5231 12.5614 10.5285C13.2447 10.5433 13.9288 10.5433 14.6121 10.5285C14.8489 10.5241 14.9112 10.6099 14.9015 10.8311C14.8866 11.1898 14.898 11.5493 14.898 12.0019C15.9112 10.7494 17.1312 10.3381 18.5803 10.6302C19.9837 10.9134 20.9493 12.1766 20.9896 13.8685C21.037 15.8595 21.002 17.8532 21.0124 19.846ZM9.2197 9.41357C8.36968 9.41173 7.70483 8.7381 7.70667 7.88212C7.70834 7.0365 8.39345 6.34717 9.22838 6.34884C10.0644 6.35147 10.7433 7.04351 10.7406 7.88993C10.7388 8.74784 10.0723 9.41524 9.2197 9.41357ZM10.1601 20.1423C9.52146 20.1169 8.88038 20.1265 8.24096 20.1388C8.01194 20.1433 7.90853 20.1011 7.90932 19.8345C7.91818 16.84 7.91721 13.8465 7.9102 10.8519C7.90932 10.6117 7.9673 10.5212 8.22333 10.5283C8.87687 10.5449 9.53199 10.5494 10.1847 10.5265C10.4854 10.516 10.5407 10.6274 10.539 10.8993C10.5276 12.3816 10.5337 13.8639 10.5337 15.3471C10.5337 16.8146 10.525 18.2829 10.5399 19.7511C10.5434 20.0494 10.4749 20.1547 10.1601 20.1423ZM24.4552 7.0524C24.3956 6.57604 24.3877 6.08573 24.1245 5.65954C23.2729 4.27808 22.0975 3.49122 20.4126 3.50007C16.1499 3.522 11.8871 3.50007 7.62419 3.51499C6.98398 3.51665 6.32527 3.5377 5.74374 3.88153C4.32447 4.72181 3.49121 5.89627 3.50007 7.61805C3.52016 11.895 3.50007 16.1717 3.51402 20.4494C3.51665 21.052 3.52551 21.6826 3.84118 22.2256C4.58673 23.5098 5.56919 24.4632 7.183 24.457C7.22949 24.457 7.26554 24.4789 7.30413 24.4991H20.746C20.8205 24.4324 20.9117 24.4657 20.9959 24.4552C21.4791 24.3947 21.9783 24.3921 22.4071 24.1149C23.6062 23.3395 24.4877 22.3633 24.4606 20.8204C24.4606 20.7932 24.4798 20.7688 24.5 20.746V7.30413C24.4403 7.22782 24.4657 7.13739 24.4552 7.0524Z" fill="#0B66C2"/>
</g>
</svg>
