<svg width="55.893555" height="48.937500" viewBox="0 0 55.8936 48.9375" fill="none" xmlns="http://www.w3.org/2000/svg" xmlns:xlink="http://www.w3.org/1999/xlink">
	<desc>
			Created with Pixso.
	</desc>
	<defs/>
	<g opacity="0.720000">
		<path d="M41.7236 0L52.6221 5.84277C57.5557 8.97302 56.3716 16.4043 52.6226 22.4525L41.6909 16.5889C45.4707 10.4768 46.6172 2.94397 41.7236 0Z" fill="#00CBFE" fill-opacity="1.000000" fill-rule="nonzero"/>
	</g>
	<g opacity="0.880000">
		<path d="M37.2036 30.6611L26.2749 24.8392L41.6909 16.5889L52.6226 22.4525L37.2036 30.6611Z" fill="#00CBFE" fill-opacity="1.000000" fill-rule="nonzero"/>
	</g>
	<path d="M37.2188 14.0565L26.29 8.24194L26.2598 41.4355L37.1885 47.25L37.2188 14.0565Z" fill="#00CBFE" fill-opacity="1.000000" fill-rule="nonzero"/>
	<g opacity="0.800000">
		<path d="M37.2188 14.0564L26.29 8.24194L41.7241 0L52.6221 5.84277L37.2188 14.0564Z" fill="#00CBFE" fill-opacity="1.000000" fill-rule="nonzero"/>
	</g>
	<g opacity="0.720000">
		<path d="M14.2031 18.2764L3.27148 24.14C-1.66211 27.2703 -0.478027 34.6947 3.271 40.7435L14.2197 34.8691C10.4399 28.7572 9.31006 21.2203 14.2031 18.2764Z" fill="#0049FC" fill-opacity="1.000000" fill-rule="nonzero"/>
	</g>
	<g opacity="0.880000">
		<path d="M18.7061 48.9375L29.6348 43.1229L14.2197 34.8691L3.271 40.7435L18.7061 48.9375Z" fill="#0049FC" fill-opacity="1.000000" fill-rule="nonzero"/>
	</g>
	<path d="M18.6758 15.744L29.6045 9.92944L29.6348 43.123L18.7061 48.9375L18.6758 15.744Z" fill="#0049FC" fill-opacity="1.000000" fill-rule="nonzero"/>
	<g opacity="0.800000">
		<path d="M18.6753 15.7439L29.604 9.92944L14.1699 1.6875L3.27197 7.53027L18.6753 15.7439Z" fill="#0049FC" fill-opacity="1.000000" fill-rule="nonzero"/>
	</g>
</svg>
