<svg width="752" height="768" viewBox="0 0 752 768" fill="none" xmlns="http://www.w3.org/2000/svg">
<path fill-rule="evenodd" clip-rule="evenodd" d="M638.941 203.359C632.701 192.157 625.707 181.273 617.962 170.782L534.057 92.9687C523.014 86.0352 511.635 79.88 499.995 74.5003L638.941 203.359ZM451.025 56.7867C458.131 58.6876 465.184 60.8499 472.169 63.2741L652.228 230.261C655.171 237.044 657.858 243.915 660.288 250.857L451.025 56.7867ZM412.924 49.1528C418.674 49.9291 424.406 50.8693 430.115 51.9737L666.66 271.347C668.191 276.956 669.559 282.602 670.766 288.276L412.924 49.1528ZM380.201 46.506C385.199 46.6423 390.196 46.9005 395.185 47.2808L673.967 305.824C674.721 310.771 675.355 315.734 675.867 320.708L380.201 46.506ZM350.972 47.0991C355.46 46.7942 359.955 46.5878 364.453 46.4801L677.077 336.41C677.308 340.902 677.44 345.4 677.474 349.899L350.972 47.0991ZM324.318 50.0819C328.423 49.4402 332.538 48.8821 336.662 48.4076L677.246 364.267C677.083 368.415 676.836 372.56 676.505 376.701L324.318 50.0819ZM299.716 54.9661C303.509 54.0502 307.318 53.2075 311.138 52.4381L675.146 390.021C674.667 393.889 674.113 397.75 673.485 401.602L299.716 54.9661ZM276.83 61.4426C280.361 60.2932 283.909 59.2094 287.473 58.1913L671.19 414.053C670.443 417.683 669.629 421.302 668.748 424.91L276.83 61.4426ZM255.436 69.303C258.737 67.948 262.057 66.6528 265.395 65.4176L665.645 436.611C664.664 440.033 663.622 443.441 662.519 446.834L255.436 69.303ZM235.376 78.4005C238.47 76.8597 241.585 75.3744 244.72 73.9444L658.697 457.869C657.507 461.102 656.26 464.32 654.957 467.521L235.376 78.4005ZM216.536 88.6289C219.44 86.917 222.366 85.2568 225.314 83.6484L650.48 477.95C649.098 481.01 647.663 484.053 646.174 487.078L216.536 88.6289ZM198.832 99.9105C201.557 98.0379 204.308 96.2142 207.081 94.4394L641.092 496.943C639.53 499.842 637.919 502.722 636.257 505.581L198.832 99.9105ZM182.2 112.188C184.758 110.162 187.34 108.183 189.948 106.251L630.602 514.916C628.871 517.662 627.092 520.386 625.265 523.088L182.2 112.188ZM166.597 125.418C168.992 123.246 171.414 121.118 173.862 119.034L619.065 531.918C617.172 534.515 615.232 537.091 613.246 539.642L166.597 125.418ZM151.99 139.572C154.228 137.256 156.493 134.984 158.787 132.754L606.519 547.983C604.467 550.437 602.372 552.868 600.231 555.273L151.99 139.572ZM138.358 154.63C140.425 152.191 142.537 149.776 144.694 147.385L592.989 563.136C590.767 565.467 588.518 567.754 586.241 569.999L138.358 154.63ZM125.706 170.599C127.617 168.016 129.573 165.456 131.575 162.92L578.485 577.386C576.106 579.574 573.701 581.717 571.269 583.816L125.706 170.599ZM114.061 187.5C115.81 184.77 117.606 182.062 119.45 179.376L562.988 590.715C560.448 592.756 557.882 594.751 555.292 596.699L114.061 187.5ZM103.459 205.369C105.039 202.486 106.669 199.624 108.349 196.781L546.467 603.094C543.759 604.983 541.027 606.824 538.271 608.615L103.459 205.369ZM93.9518 224.252C95.3533 221.209 96.8077 218.184 98.3152 215.177L528.878 614.483C525.993 616.212 523.086 617.89 520.157 619.517L93.9518 224.252ZM85.6076 244.215C86.8186 241 88.086 237.801 89.4098 234.619L510.16 624.826C507.087 626.385 503.993 627.889 500.878 629.339L85.6076 244.215ZM78.521 265.343C79.5247 261.943 80.589 258.555 81.7139 255.183L490.234 634.047C486.956 635.422 483.658 636.738 480.342 637.995L78.521 265.343ZM72.8207 287.758C73.5938 284.151 74.4329 280.555 75.3381 276.971L468.987 642.043C465.482 643.215 461.959 644.323 458.42 645.365L72.8207 287.758ZM68.6858 311.624C69.1958 307.783 69.7789 303.949 70.4352 300.125L446.268 648.674C442.504 649.616 438.724 650.486 434.933 651.283L68.6858 311.624ZM66.375 337.182C66.5743 333.066 66.8564 328.953 67.2214 324.846L421.859 653.738C417.79 654.411 413.71 655.002 409.621 655.51L66.375 337.182ZM66.2791 364.794C66.0945 360.342 66.0067 355.885 66.0158 351.428L395.442 656.94C390.998 657.284 386.548 657.532 382.094 657.683L66.2791 364.794ZM69.035 395.051C68.3444 390.159 67.772 385.253 67.3181 380.337L366.517 657.816C361.581 657.733 356.646 657.531 351.716 657.211L69.035 395.051ZM75.8088 429.034C74.3788 423.51 73.105 417.952 71.9876 412.369L334.225 655.569C328.573 654.875 322.936 654.023 317.32 653.012L75.8088 429.034ZM89.2342 469.186C86.499 462.573 84.0045 455.881 81.7512 449.124L296.839 648.598C289.932 646.859 283.072 644.875 276.272 642.645L89.2342 469.186ZM119.428 524.889C112.794 515.219 106.775 505.245 101.371 495.021L249.596 632.486C238.996 627.867 228.597 622.615 218.455 616.727L119.428 524.889Z" fill="url(#paint0_linear_8_20406)"/>
<defs>
<linearGradient id="paint0_linear_8_20406" x1="224.97" y1="190.336" x2="566.167" y2="512.528" gradientUnits="userSpaceOnUse">
<stop stop-color="#FF794D"/>
<stop offset="0.460379" stop-color="#FF794D" stop-opacity="0.04"/>
<stop offset="0.625427" stop-color="#FF794D" stop-opacity="0"/>
</linearGradient>
</defs>
</svg>
