<svg width="612" height="612" viewBox="0 0 612 612" fill="none" xmlns="http://www.w3.org/2000/svg">
<path fill-rule="evenodd" clip-rule="evenodd" d="M39.0107 157.359C45.2507 146.157 52.2444 135.273 59.989 124.782L143.894 46.9687C154.937 40.0352 166.317 33.88 177.956 28.5003L39.0107 157.359ZM226.926 10.7867C219.82 12.6876 212.767 14.8499 205.782 17.2741L25.7232 184.261C22.7804 191.044 20.0937 197.915 17.6636 204.857L226.926 10.7867ZM265.027 3.15276C259.277 3.92904 253.545 4.86926 247.836 5.97367L11.2913 225.347C9.76062 230.956 8.39184 236.602 7.18529 242.276L265.027 3.15276ZM297.75 0.506048C292.752 0.642295 287.756 0.900497 282.766 1.28083L3.98428 259.824C3.22969 264.771 2.59639 269.734 2.08455 274.708L297.75 0.506048ZM326.98 1.09914C322.491 0.794229 317.996 0.587837 313.498 0.480082L0.874016 290.41C0.643165 294.902 0.510856 299.4 0.477228 303.899L326.98 1.09914ZM353.633 4.08188C349.529 3.44019 345.413 2.88208 341.289 2.40761L0.705555 318.267C0.868476 322.415 1.11545 326.56 1.44659 330.701L353.633 4.08188ZM378.236 8.96608C374.442 8.05018 370.634 7.20749 366.813 6.43808L2.80468 344.021C3.2845 347.889 3.83834 351.75 4.4663 355.602L378.236 8.96608ZM401.121 15.4426C397.59 14.2932 394.042 13.2094 390.479 12.1913L6.7614 368.053C7.50854 371.683 8.32235 375.302 9.20292 378.91L401.121 15.4426ZM422.515 23.303C419.214 21.948 415.894 20.6528 412.556 19.4176L12.3065 390.611C13.2871 394.033 14.3288 397.441 15.4317 400.834L422.515 23.303ZM442.575 32.4005C439.481 30.8597 436.366 29.3744 433.231 27.9444L19.254 411.869C20.4441 415.102 21.6909 418.32 22.9945 421.521L442.575 32.4005ZM461.415 42.6289C458.511 40.917 455.585 39.2568 452.637 37.6484L27.4707 431.95C28.8528 435.01 30.2881 438.053 31.7768 441.078L461.415 42.6289ZM479.12 53.9105C476.394 52.0379 473.644 50.2142 470.87 48.4394L36.8595 450.943C38.4207 453.842 40.0324 456.722 41.6946 459.581L479.12 53.9105ZM495.751 66.1876C493.194 64.1623 490.611 62.1834 488.003 60.251L47.3489 468.916C49.0797 471.662 50.8587 474.386 52.6859 477.088L495.751 66.1876ZM511.354 79.4181C508.959 77.2457 506.537 75.1178 504.089 73.0343L58.886 485.918C60.7794 488.515 62.7192 491.091 64.7052 493.642L511.354 79.4181ZM525.961 93.572C523.724 91.2564 521.458 88.9837 519.165 86.7539L71.4327 501.983C73.4837 504.437 75.5795 506.868 77.7201 509.273L525.961 93.572ZM539.594 108.63C537.526 106.191 535.414 103.776 533.257 101.385L84.9624 517.136C87.1838 519.467 89.4336 521.754 91.7106 523.999L539.594 108.63ZM552.245 124.599C550.335 122.016 548.378 119.456 546.376 116.92L99.4665 531.386C101.845 533.574 104.25 535.717 106.682 537.816L552.245 124.599ZM563.89 141.5C562.142 138.77 560.345 136.062 558.501 133.376L114.963 544.715C117.503 546.756 120.069 548.751 122.659 550.699L563.89 141.5ZM574.492 159.369C572.912 156.486 571.283 153.624 569.603 150.781L131.485 557.094C134.192 558.983 136.925 560.824 139.68 562.615L574.492 159.369ZM583.999 178.252C582.598 175.209 581.143 172.184 579.636 169.177L149.074 568.483C151.958 570.212 154.866 571.89 157.795 573.517L583.999 178.252ZM592.344 198.215C591.133 195 589.865 191.801 588.541 188.619L167.791 578.826C170.864 580.385 173.958 581.889 177.073 583.339L592.344 198.215ZM599.43 219.343C598.426 215.943 597.362 212.555 596.237 209.183L187.717 588.047C190.995 589.422 194.293 590.738 197.609 591.995L599.43 219.343ZM605.131 241.758C604.357 238.151 603.518 234.555 602.613 230.971L208.964 596.043C212.469 597.215 215.992 598.323 219.531 599.365L605.131 241.758ZM609.265 265.624C608.755 261.783 608.172 257.949 607.516 254.125L231.684 602.674C235.448 603.616 239.227 604.486 243.019 605.283L609.265 265.624ZM611.576 291.182C611.377 287.066 611.095 282.953 610.73 278.846L256.092 607.738C260.161 608.411 264.241 609.002 268.33 609.51L611.576 291.182ZM611.672 318.794C611.857 314.342 611.944 309.885 611.935 305.428L282.509 610.94C286.953 611.284 291.403 611.532 295.857 611.683L611.672 318.794ZM608.916 349.051C609.607 344.159 610.179 339.253 610.633 334.337L311.434 611.816C316.37 611.733 321.305 611.531 326.235 611.211L608.916 349.051ZM602.142 383.034C603.572 377.51 604.846 371.952 605.964 366.369L343.726 609.569C349.378 608.875 355.016 608.023 360.632 607.012L602.142 383.034ZM588.717 423.186C591.452 416.573 593.947 409.881 596.2 403.124L381.112 602.598C388.019 600.859 394.88 598.875 401.679 596.645L588.717 423.186ZM558.523 478.889C565.157 469.219 571.177 459.245 576.58 449.021L428.355 586.486C438.956 581.867 449.355 576.615 459.496 570.727L558.523 478.889Z" fill="url(#paint0_linear_44_15472)"/>
<defs>
<linearGradient id="paint0_linear_44_15472" x1="518.289" y1="92.3333" x2="85.881" y2="499.62" gradientUnits="userSpaceOnUse">
<stop stop-color="#FF794D"/>
<stop offset="0.489583" stop-color="#FF794D" stop-opacity="0.04"/>
<stop offset="0.796875" stop-color="#FF794D" stop-opacity="0"/>
</linearGradient>
</defs>
</svg>
