<?xml version="1.0" ?>
<!DOCTYPE svg  PUBLIC '-//W3C//DTD SVG 1.1//EN'  'http://www.w3.org/Graphics/SVG/1.1/DTD/svg11.dtd'>
<!-- Uploaded to: SVG Repo, www.svgrepo.com, Generator: SVG Repo Mixer Tools -->
<svg width="800px" height="800px" viewBox="0 -0.99 64 64" id="Layer_1" version="1.1" xml:space="preserve" xmlns="http://www.w3.org/2000/svg" xmlns:xlink="http://www.w3.org/1999/xlink">
<g id="Ears_1_">
<g>
<path d="M8.81,4.899c-2.688,1.76-3.608,5.657-2.057,8.706    s6.861,7.772,9.55,6.013c2.688-1.761,1.735-9.338,0.184-12.387C14.934,4.183,11.497,3.139,8.81,4.899z M40.311,0.008    c-3.312,0.175-6.146,3.002-6.333,6.314c-0.186,3.313,2.123,9.854,5.435,9.68c3.311-0.175,6.37-7,6.557-10.313    C46.154,2.377,43.621-0.166,40.311,0.008z" style="fill-rule:evenodd;clip-rule:evenodd;fill:#75A64B;"/>
</g>
</g>
<g id="Head_14_">
<g>
<ellipse cx="32" cy="36.026" rx="32" ry="26" style="fill:#88C057;"/>
</g>
</g>
<g id="Mouth_2_">
<g>
<path d="M32,46.026c-8.837,0-16-1.313-16,2s7.163,6,16,6c8.836,0,16-2.687,16-6S40.836,46.026,32,46.026z" style="fill:#638C3F;"/>
</g>
</g>
<g id="Eye_balls_1_">
<g>
<path d="M12,26.026c-3.313,0-6,2.687-6,6s2.687,6,6,6s6-2.687,6-6    S15.313,26.026,12,26.026z M52,26.026c-3.313,0-6,2.687-6,6s2.687,6,6,6s6-2.687,6-6S55.313,26.026,52,26.026z" style="fill-rule:evenodd;clip-rule:evenodd;fill:#FFFFFF;"/>
</g>
</g>
<g id="Eyes_2_">
<g>
<path d="M14,30.026c-1.104,0-2,0.896-2,2s0.896,2,2,2s2-0.896,2-2    S15.104,30.026,14,30.026z M54,30.026c-1.104,0-2,0.896-2,2s0.896,2,2,2s2-0.896,2-2S55.104,30.026,54,30.026z" style="fill-rule:evenodd;clip-rule:evenodd;fill:#4D4D4D;"/>
</g>
</g>
<g id="Nose_4_">
<g>
<ellipse cx="32" cy="38.026" rx="14" ry="12" style="fill:#ABF26D;"/>
</g>
</g>
<g id="Nose_Holes">
<g>
<path d="M26,34.026c-1.104,0-2,1.791-2,4s0.896,4,2,4s2-1.791,2-4    S27.104,34.026,26,34.026z M38,34.026c-1.104,0-2,1.791-2,4s0.896,4,2,4s2-1.791,2-4S39.104,34.026,38,34.026z" style="fill-rule:evenodd;clip-rule:evenodd;fill:#3F5928;"/>
</g>
</g>
<g id="Eyebrows_1_">
<g>
<path d="M16,18.026H8c-1.104,0-2,0.896-2,2s0.896,2,2,2h8    c1.104,0,2-0.896,2-2S17.104,18.026,16,18.026z M56,18.026h-8c-1.104,0-2,0.896-2,2s0.896,2,2,2h8c1.104,0,2-0.896,2-2    S57.104,18.026,56,18.026z" style="fill-rule:evenodd;clip-rule:evenodd;fill:#638C3F;"/>
</g>
</g>
<g/>
<g/>
<g/>
<g/>
<g/>
<g/>
<g/>
<g/>
<g/>
<g/>
<g/>
<g/>
<g/>
<g/>
<g/>
</svg>