<svg width="32" height="32" viewBox="0 0 32 32" fill="none" xmlns="http://www.w3.org/2000/svg">
<path d="M20.19 6H11.81C8.17 6 6 8.17 6 11.81V20.18C6 23.83 8.17 26 11.81 26H20.18C23.82 26 25.99 23.83 25.99 20.19V11.81C26 8.17 23.83 6 20.19 6ZM19.76 19.76C19.7 20.61 19.63 21.67 17.71 21.67H14.29C12.38 21.67 12.3 20.61 12.24 19.76L11.93 15.8C11.91 15.54 12 15.29 12.17 15.1C12.34 14.91 12.59 14.81 12.84 14.81H19.16C19.41 14.81 19.66 14.92 19.83 15.1C20 15.29 20.09 15.54 20.07 15.79L19.76 19.76ZM20.8 13.82C20.78 13.82 20.76 13.82 20.74 13.82C19.7 13.72 18.75 13.65 17.84 13.61C16.62 13.55 15.4 13.53 14.17 13.58C13.57 13.61 12.96 13.65 12.36 13.71L11.27 13.82C11.25 13.82 11.22 13.82 11.2 13.82C10.85 13.82 10.55 13.56 10.52 13.2C10.48 12.83 10.76 12.49 11.13 12.46L12.22 12.35C12.65 12.31 13.07 12.28 13.5 12.26L13.58 11.79C13.66 11.29 13.81 10.33 15.31 10.33H16.7C18.21 10.33 18.36 11.32 18.43 11.8L18.51 12.28C19.26 12.32 20.03 12.38 20.87 12.46C21.25 12.5 21.52 12.83 21.49 13.21C21.45 13.56 21.15 13.82 20.8 13.82Z" fill="#1C1C1E" fill-opacity="0.54"/>
</svg>
