<svg width="32" height="32" viewBox="0 0 32 32" fill="none" xmlns="http://www.w3.org/2000/svg">
<path d="M20.19 6H11.81C8.17 6 6 8.17 6 11.81V20.18C6 23.83 8.17 26 11.81 26H20.18C23.82 26 25.99 23.83 25.99 20.19V11.81C26 8.17 23.83 6 20.19 6ZM14.95 21.51C14.66 21.8 14.11 22.08 13.71 22.14L11.25 22.49C11.16 22.5 11.07 22.51 10.98 22.51C10.57 22.51 10.19 22.37 9.92 22.1C9.59 21.77 9.45 21.29 9.53 20.76L9.88 18.3C9.94 17.89 10.21 17.35 10.51 17.06L14.97 12.6C15.05 12.81 15.13 13.02 15.24 13.26C15.34 13.47 15.45 13.69 15.57 13.89C15.67 14.06 15.78 14.22 15.87 14.34C15.98 14.51 16.11 14.67 16.19 14.76C16.24 14.83 16.28 14.88 16.3 14.9C16.55 15.2 16.84 15.48 17.09 15.69C17.16 15.76 17.2 15.8 17.22 15.81C17.37 15.93 17.52 16.05 17.65 16.14C17.81 16.26 17.97 16.37 18.14 16.46C18.34 16.58 18.56 16.69 18.78 16.8C19.01 16.9 19.22 16.99 19.43 17.06L14.95 21.51ZM21.37 15.09L20.45 16.02C20.39 16.08 20.31 16.11 20.23 16.11C20.2 16.11 20.16 16.11 20.14 16.1C18.11 15.52 16.49 13.9 15.91 11.87C15.88 11.76 15.91 11.64 15.99 11.57L16.92 10.64C18.44 9.12 19.89 9.15 21.38 10.64C22.14 11.4 22.51 12.13 22.51 12.89C22.5 13.61 22.13 14.33 21.37 15.09Z" fill="#0049FC"/>
</svg>
