<svg width="56" height="56" viewBox="0 0 56 56" fill="none" xmlns="http://www.w3.org/2000/svg">
<g clip-path="url(#clip0_939_10048)">
<path d="M19.3802 5.64453H44.5732C45.0839 5.64614 45.5893 5.74834 46.0605 5.94529C46.5317 6.14225 46.9595 6.4301 47.3195 6.79241C47.6795 7.15472 47.9645 7.58439 48.1584 8.05689C48.3523 8.52938 48.4512 9.03544 48.4494 9.54616V51.4858C48.4512 51.9965 48.3523 52.5026 48.1584 52.9751C47.9645 53.4475 47.6795 53.8772 47.3195 54.2395C46.9595 54.6018 46.5317 54.8897 46.0605 55.0866C45.5893 55.2836 45.0839 55.3858 44.5732 55.3874H19.3802C18.8695 55.3858 18.3641 55.2836 17.8928 55.0866C17.4216 54.8897 16.9938 54.6018 16.6339 54.2395C16.2739 53.8772 15.9889 53.4475 15.795 52.9751C15.6011 52.5026 15.5022 51.9965 15.5039 51.4858V9.54528C15.5023 9.03464 15.6013 8.52867 15.7952 8.05628C15.9892 7.58389 16.2742 7.15432 16.6342 6.7921C16.9941 6.42988 17.4219 6.14211 17.893 5.94521C18.3642 5.74831 18.8695 5.64614 19.3802 5.64453V5.64453Z" fill="#EDE6FD"/>
<path d="M44.5739 5.64453H37.6781L36.3804 6.31216C36.1749 6.41876 36.0139 6.59487 35.9261 6.80912C35.8382 7.02337 35.8293 7.26183 35.9009 7.48203L36.8494 10.4334C36.912 10.6286 36.912 10.8385 36.8494 11.0337L35.9009 13.9842C35.8293 14.2044 35.8382 14.4428 35.9261 14.6571C36.0139 14.8713 36.1749 15.0474 36.3804 15.154L39.1244 16.5654C39.306 16.6593 39.4535 16.8077 39.5462 16.9898L40.9462 19.7522C41.0495 19.9592 41.2237 20.1224 41.437 20.212C41.6504 20.3016 41.8889 20.3117 42.1091 20.2404L45.0403 19.2858C45.2339 19.2223 45.4426 19.2223 45.6362 19.2858L48.4485 20.1905V9.54528C48.4515 8.51436 48.0451 7.52441 47.3185 6.79298C46.592 6.06154 45.6049 5.64847 44.5739 5.64453Z" fill="#FECF82"/>
<path d="M46.8091 1.00269L49.7412 0.0471933C49.9614 -0.0240635 50.1998 -0.0139804 50.4132 0.0756112C50.6266 0.165203 50.8008 0.328359 50.9041 0.535443L52.3041 3.29782C52.3965 3.48013 52.5441 3.62864 52.7258 3.72219L55.4698 5.13357C55.6755 5.24033 55.8365 5.4166 55.9243 5.631C56.0121 5.84539 56.021 6.084 55.9493 6.30432L55.0008 9.25569C54.9377 9.4505 54.9377 9.66026 55.0008 9.85507L55.9493 12.8064C56.0209 13.0266 56.012 13.2651 55.9242 13.4794C55.8364 13.6936 55.6754 13.8697 55.4698 13.9763L52.7258 15.3877C52.5442 15.4813 52.3966 15.6298 52.3041 15.8121L50.9041 18.5744C50.8008 18.7815 50.6266 18.9447 50.4132 19.0343C50.1998 19.1239 49.9614 19.134 49.7412 19.0627L46.8091 18.1081C46.6158 18.0446 46.4073 18.0446 46.2141 18.1081L43.2819 19.0627C43.0619 19.1347 42.8233 19.1249 42.6099 19.0352C42.3965 18.9456 42.2225 18.782 42.1199 18.5744L40.72 15.8121C40.6278 15.6299 40.4805 15.4814 40.2991 15.3877L37.5533 13.9754C37.3476 13.869 37.1865 13.6929 37.0987 13.4786C37.0108 13.2643 37.002 13.0258 37.0738 12.8056L38.0223 9.85419C38.0855 9.65939 38.0855 9.44962 38.0223 9.25482L37.0721 6.30432C37.0002 6.08401 37.009 5.84534 37.0968 5.63089C37.1847 5.41645 37.3458 5.2402 37.5516 5.13357L40.2956 3.72219C40.477 3.62854 40.6243 3.48003 40.7165 3.29782L42.1164 0.535443C42.219 0.327926 42.393 0.164336 42.6064 0.0746614C42.8198 -0.0150133 43.0584 -0.0247652 43.2784 0.0471933L46.2158 1.00269C46.4091 1.06614 46.6176 1.06614 46.8108 1.00269H46.8091Z" fill="#FE9D00"/>
<path d="M50.3877 9.54518C50.3827 10.3107 50.1511 11.0577 49.7221 11.6918C49.2931 12.3258 48.686 12.8187 47.9773 13.1082C47.2686 13.3977 46.49 13.4709 45.7398 13.3185C44.9895 13.166 44.3012 12.7949 43.7616 12.2518C43.2221 11.7087 42.8554 11.018 42.7079 10.2667C42.5604 9.51552 42.6386 8.73744 42.9327 8.03063C43.2269 7.32381 43.7237 6.71991 44.3606 6.2951C44.9975 5.87028 45.7459 5.64357 46.5114 5.64355C47.0221 5.64516 47.5275 5.74736 47.9988 5.94431C48.47 6.14127 48.8978 6.42912 49.2577 6.79143C49.6177 7.15375 49.9027 7.58342 50.0966 8.05591C50.2905 8.5284 50.3894 9.03446 50.3877 9.54518V9.54518Z" fill="#DA042C"/>
<path d="M39.7283 24.1765H23.2555C23.0019 24.1689 22.7613 24.0628 22.5846 23.8807C22.4079 23.6987 22.3091 23.455 22.3091 23.2013C22.3091 22.9476 22.4079 22.7038 22.5846 22.5218C22.7613 22.3397 23.0019 22.2337 23.2555 22.2261H39.7283C39.9818 22.2337 40.2225 22.3397 40.3991 22.5218C40.5758 22.7038 40.6747 22.9476 40.6747 23.2013C40.6747 23.455 40.5758 23.6987 40.3991 23.8807C40.2225 24.0628 39.9818 24.1689 39.7283 24.1765V24.1765Z" fill="#00CBFE"/>
<path d="M39.7291 29.0539H26.1666C25.9131 29.0463 25.6724 28.9402 25.4957 28.7582C25.319 28.5761 25.2202 28.3324 25.2202 28.0787C25.2202 27.825 25.319 27.5813 25.4957 27.3992C25.6724 27.2172 25.9131 27.1111 26.1666 27.1035H39.7291C39.9827 27.1111 40.2234 27.2172 40.4 27.3992C40.5767 27.5813 40.6755 27.825 40.6755 28.0787C40.6755 28.3324 40.5767 28.5761 40.4 28.7582C40.2234 28.9402 39.9827 29.0463 39.7291 29.0539V29.0539Z" fill="#00CBFE"/>
<path d="M39.7267 33.9299H32.9454C32.6918 33.9223 32.4512 33.8162 32.2745 33.6341C32.0978 33.4521 31.999 33.2084 31.999 32.9547C31.999 32.701 32.0978 32.4573 32.2745 32.2752C32.4512 32.0932 32.6918 31.9871 32.9454 31.9795H39.7267C39.9803 31.9871 40.2209 32.0932 40.3976 32.2752C40.5743 32.4573 40.6731 32.701 40.6731 32.9547C40.6731 33.2084 40.5743 33.4521 40.3976 33.6341C40.2209 33.8162 39.9803 33.9223 39.7267 33.9299V33.9299Z" fill="#00CBFE"/>
<path d="M25.1945 13.4478H31.0088C31.5262 13.4478 32.0224 13.6533 32.3883 14.0191C32.7541 14.385 32.9596 14.8812 32.9596 15.3986C32.9596 15.916 32.7541 16.4121 32.3883 16.778C32.0224 17.1438 31.5262 17.3494 31.0088 17.3494H25.1945C24.6771 17.3494 24.1809 17.1438 23.815 16.778C23.4492 16.4121 23.2437 15.916 23.2437 15.3986C23.2437 14.8812 23.4492 14.385 23.815 14.0191C24.1809 13.6533 24.6771 13.4478 25.1945 13.4478V13.4478Z" fill="#3B32EF"/>
<path d="M19.8188 55.651L19.1129 53.2551C19.0758 53.1327 18.9868 53.0285 18.8652 52.9649C18.7436 52.9013 18.5991 52.8834 18.463 52.9151L15.8278 53.554C15.7594 53.5689 15.6884 53.5715 15.6188 53.5616C15.5493 53.5517 15.4826 53.5295 15.4226 53.4964C15.3626 53.4632 15.3104 53.4196 15.2691 53.3682C15.2278 53.3167 15.1981 53.2585 15.1818 53.1967C15.1501 53.0788 15.168 52.9546 15.232 52.848L21.2721 43.1665L26.8332 46.0811L20.7931 55.7626C20.7399 55.844 20.6614 55.9095 20.5673 55.951C20.4732 55.9925 20.3676 56.008 20.2638 55.9958C20.16 55.9835 20.0624 55.944 19.9833 55.8821C19.9042 55.8201 19.8469 55.7386 19.8188 55.6476V55.651Z" fill="#FBD3B7"/>
<path d="M20.0017 55.2381L19.3621 52.8327C19.3284 52.7099 19.2478 52.6052 19.1376 52.5414C19.0274 52.4775 18.8965 52.4596 18.7732 52.4915L16.3853 53.1328C16.3233 53.1478 16.259 53.1504 16.196 53.1405C16.133 53.1305 16.0726 53.1083 16.0182 53.0749C15.9638 53.0416 15.9166 52.9979 15.8791 52.9463C15.8417 52.8946 15.8148 52.8361 15.8 52.7741C15.7713 52.6558 15.7875 52.5311 15.8455 52.4241L21.3186 42.7046L26.3577 45.6306L20.8846 55.3501C20.8364 55.4318 20.7653 55.4976 20.68 55.5392C20.5947 55.5808 20.4991 55.5965 20.405 55.5842C20.3109 55.5719 20.2225 55.5322 20.1508 55.47C20.0791 55.4079 20.0273 55.326 20.0017 55.2346V55.2381Z" fill="#FE6B03"/>
<path d="M9.69118 23.1675L27.2306 38.4301L47.4536 45.1125L43.0934 52.7154L5.33105 30.7695L9.69118 23.1675Z" fill="#0027E0"/>
<path d="M35.9904 55.3455L19.6909 44.7475L2.4228 35.8382C1.30834 35.1863 0.496664 34.1203 0.164615 32.8726C-0.167433 31.6249 0.0070505 30.2965 0.650053 29.1768L1.13393 28.3316C1.44932 27.7779 1.87121 27.2921 2.37526 26.9023C2.87932 26.5125 3.45556 26.2263 4.07077 26.0603C4.68597 25.8943 5.32795 25.8517 5.95969 25.935C6.59143 26.0183 7.20043 26.2259 7.75155 26.5457V26.5457L24.0502 37.149L41.3192 46.0565C42.4336 46.7084 43.2453 47.7743 43.5775 49.022C43.9097 50.2696 43.7355 51.598 43.0928 52.7178V52.7178L42.608 53.5631C42.2924 54.1165 41.8703 54.6019 41.3661 54.9914C40.8619 55.3809 40.2856 55.6667 39.6704 55.8324C39.0552 55.9981 38.4133 56.0403 37.7817 55.9568C37.1502 55.8732 36.5413 55.6654 35.9904 55.3455V55.3455Z" fill="#CFC3F9"/>
<path d="M24.6651 34.1225L28.0216 36.0737C28.2446 36.2041 28.4071 36.4173 28.4737 36.6669C28.5402 36.9165 28.5054 37.1823 28.3768 37.4063L22.0768 48.3867C22.014 48.4978 21.9298 48.5952 21.829 48.6734C21.7282 48.7516 21.6128 48.809 21.4896 48.8423C21.3664 48.8755 21.2379 48.8839 21.1114 48.867C20.9849 48.85 20.8631 48.8081 20.753 48.7437L17.3956 46.7925C17.1727 46.662 17.0104 46.4487 16.944 46.1991C16.8776 45.9495 16.9126 45.6838 17.0412 45.4598L23.3412 34.4795C23.404 34.3684 23.4883 34.2709 23.5891 34.1927C23.6899 34.1145 23.8052 34.0571 23.9284 34.0239C24.0516 33.9907 24.1802 33.9823 24.3067 33.9992C24.4331 34.0161 24.555 34.058 24.6651 34.1225Z" fill="#FE9D00"/>
</g>
<defs>
<clipPath id="clip0_939_10048">
<rect width="56" height="56" fill="white"/>
</clipPath>
</defs>
</svg>
