<svg width="56" height="56" viewBox="0 0 56 56" fill="none" xmlns="http://www.w3.org/2000/svg">
<g opacity="0.3">
<path d="M24.9468 10.6138V17.4676C24.9589 17.7778 24.8945 18.0862 24.7593 18.3656C24.6241 18.645 24.4223 18.8868 24.1715 19.0698L13.1019 26.1345C12.9158 26.2576 12.6976 26.3232 12.4745 26.3232C12.2514 26.3232 12.0332 26.2576 11.8471 26.1345L0.771393 19.0663C0.522532 18.8847 0.322131 18.6447 0.187855 18.3675C0.0535797 18.0902 -0.0104543 17.7842 0.00138913 17.4764V10.6138H24.9468Z" fill="#03ECBC"/>
<path d="M24.9464 2.65387V10.6164H0.000976562V2.65387C0.000976562 1.19437 0.936358 0 2.07998 0H22.8682C24.011 0 24.9464 1.19437 24.9464 2.65387Z" fill="#00F9C6"/>
<path d="M24.9468 6.99805V10.6127H0.00146484V6.99805H24.9468Z" fill="#0FAF8F"/>
<path d="M23.6998 31.26L19.9539 35.8704C19.867 35.977 19.8052 36.1018 19.7731 36.2356C19.741 36.3693 19.7394 36.5086 19.7684 36.643L21.4361 44.3824C21.4714 44.5498 21.4595 44.7236 21.402 44.8846C21.3444 45.0456 21.2434 45.1876 21.1101 45.2947C20.9768 45.4018 20.8164 45.4699 20.6468 45.4914C20.4772 45.513 20.3049 45.4871 20.149 45.4167L12.9224 42.1923C12.8029 42.139 12.6735 42.1115 12.5426 42.1115C12.4118 42.1115 12.2824 42.139 12.1629 42.1923L4.95202 45.4097C4.79564 45.4803 4.62272 45.506 4.45256 45.4841C4.28239 45.4621 4.12169 45.3933 3.98837 45.2853C3.85504 45.1773 3.75435 45.0343 3.69754 44.8724C3.64074 44.7105 3.63004 44.536 3.66665 44.3684L5.24165 37.3404C5.26974 37.2144 5.27093 37.0839 5.24515 36.9574C5.21937 36.8309 5.16719 36.7113 5.09202 36.6063L1.21753 31.1813C1.1194 31.043 1.06128 30.8804 1.04957 30.7113C1.03785 30.5421 1.073 30.373 1.15113 30.2226C1.22926 30.0721 1.34735 29.946 1.49243 29.8583C1.63752 29.7706 1.80398 29.7246 1.97353 29.7253H7.8509C8.02251 29.7254 8.1908 29.678 8.33708 29.5882C8.48335 29.4985 8.60189 29.37 8.67953 29.2169L11.7166 23.2092C11.7945 23.0562 11.9131 22.9277 12.0594 22.8379C12.2058 22.7482 12.3741 22.7007 12.5457 22.7007C12.7174 22.7007 12.8857 22.7482 13.032 22.8379C13.1783 22.9277 13.297 23.0562 13.3748 23.2092L16.4136 29.2204C16.4909 29.3728 16.6088 29.5009 16.7542 29.5906C16.8997 29.6803 17.067 29.7281 17.2379 29.7288L22.9858 29.7577C23.1598 29.7579 23.3303 29.8074 23.4773 29.9004C23.6244 29.9935 23.7421 30.1263 23.8168 30.2836C23.8916 30.4408 23.9202 30.6159 23.8995 30.7887C23.8788 30.9615 23.8095 31.125 23.6998 31.26Z" fill="#00F9C6"/>
</g>
<g opacity="0.5">
<path d="M55.8633 10.6138V17.4676C55.8754 17.7778 55.811 18.0862 55.6758 18.3656C55.5406 18.645 55.3388 18.8868 55.088 19.0698L44.0184 26.1345C43.8323 26.2576 43.6141 26.3232 43.391 26.3232C43.1679 26.3232 42.9497 26.2576 42.7636 26.1345L31.6879 19.0663C31.439 18.8847 31.2386 18.6447 31.1044 18.3675C30.9701 18.0902 30.906 17.7842 30.9179 17.4764V10.6138H55.8633Z" fill="#CFC3F9"/>
<path d="M55.8629 2.65387V10.6164H30.9175V2.65387C30.9175 1.19437 31.8529 0 32.9965 0H53.7847C54.9275 0 55.8629 1.19437 55.8629 2.65387Z" fill="#3B32EF"/>
<path d="M55.8633 6.99805V10.6127H30.918V6.99805H55.8633Z" fill="#0027E0"/>
<path d="M54.6163 31.26L50.8704 35.8704C50.7835 35.977 50.7217 36.1018 50.6896 36.2356C50.6575 36.3693 50.6559 36.5086 50.6849 36.643L52.3527 44.3824C52.3879 44.5498 52.376 44.7236 52.3185 44.8846C52.2609 45.0456 52.1599 45.1876 52.0266 45.2947C51.8933 45.4018 51.7329 45.4699 51.5633 45.4914C51.3937 45.513 51.2214 45.4871 51.0655 45.4167L43.8389 42.1923C43.7194 42.139 43.59 42.1115 43.4592 42.1115C43.3283 42.1115 43.1989 42.139 43.0794 42.1923L35.8685 45.4097C35.7121 45.4803 35.5392 45.506 35.3691 45.4841C35.1989 45.4621 35.0382 45.3933 34.9049 45.2853C34.7715 45.1773 34.6709 45.0343 34.614 44.8724C34.5572 44.7105 34.5465 44.536 34.5832 44.3684L36.1582 37.3404C36.1862 37.2144 36.1874 37.0839 36.1617 36.9574C36.1359 36.8309 36.0837 36.7113 36.0085 36.6063L32.134 31.1813C32.0359 31.043 31.9778 30.8804 31.9661 30.7113C31.9544 30.5421 31.9895 30.373 32.0676 30.2226C32.1458 30.0721 32.2639 29.946 32.4089 29.8583C32.554 29.7706 32.7205 29.7246 32.89 29.7253H38.7674C38.939 29.7254 39.1073 29.678 39.2536 29.5882C39.3999 29.4985 39.5184 29.37 39.596 29.2169L42.6332 23.2092C42.711 23.0562 42.8296 22.9277 42.9759 22.8379C43.1223 22.7482 43.2906 22.7007 43.4622 22.7007C43.6339 22.7007 43.8022 22.7482 43.9485 22.8379C44.0948 22.9277 44.2135 23.0562 44.2913 23.2092L47.3301 29.2204C47.4074 29.3728 47.5253 29.5009 47.6707 29.5906C47.8162 29.6803 47.9835 29.7281 48.1544 29.7288L53.9023 29.7577C54.0763 29.7579 54.2468 29.8074 54.3938 29.9004C54.5409 29.9935 54.6586 30.1263 54.7333 30.2836C54.8081 30.4408 54.8367 30.6159 54.816 30.7887C54.7953 30.9615 54.726 31.125 54.6163 31.26Z" fill="#3B32EF"/>
</g>
<path d="M42.7695 12.7363V20.9613C42.7839 21.3339 42.7066 21.7044 42.5442 22.04C42.3819 22.3757 42.1395 22.6663 41.8385 22.8863L28.5551 31.3642C28.3318 31.5121 28.07 31.591 27.8021 31.591C27.5343 31.591 27.2725 31.5121 27.0492 31.3642L13.7588 22.882C13.4596 22.6637 13.2188 22.3751 13.0576 22.0416C12.8964 21.7082 12.8199 21.3401 12.8348 20.9701V12.7363H42.7695Z" fill="#FDD1C9"/>
<path d="M42.7696 3.18412V12.7365H12.835V3.18412C12.835 1.43412 13.9576 0 15.3296 0H40.275C41.647 0 42.7696 1.43325 42.7696 3.18412Z" fill="#FE9D00"/>
<path d="M42.7696 8.39746V12.7375H12.835V8.39746H42.7696Z" fill="#FE6B03"/>
<path d="M42.4991 35.0255L37.5991 41.063C37.4854 41.2027 37.4046 41.3661 37.3627 41.5412C37.3207 41.7163 37.3187 41.8985 37.3567 42.0745L39.5442 52.2061C39.5905 52.4253 39.5751 52.653 39.4998 52.8639C39.4245 53.0748 39.2922 53.2608 39.1177 53.4011C38.9431 53.5414 38.733 53.6306 38.5108 53.6588C38.2887 53.6869 38.063 53.653 37.8589 53.5607L28.3984 49.3396C28.2418 49.2701 28.0724 49.2341 27.901 49.2341C27.7296 49.2341 27.5602 49.2701 27.4036 49.3396L17.9641 53.5519C17.7593 53.6442 17.5329 53.6778 17.3101 53.649C17.0874 53.6202 16.877 53.5301 16.7024 53.3888C16.5279 53.2474 16.396 53.0604 16.3215 52.8485C16.247 52.6366 16.2328 52.4081 16.2806 52.1887L18.3377 42.988C18.3748 42.8229 18.3766 42.6518 18.343 42.4859C18.3094 42.3201 18.2411 42.1632 18.1426 42.0255L13.0676 34.9258C12.9386 34.7448 12.8622 34.5317 12.8467 34.31C12.8312 34.0883 12.8772 33.8667 12.9796 33.6695C13.0821 33.4723 13.237 33.3072 13.4273 33.1925C13.6176 33.0777 13.8359 33.0177 14.0581 33.0191H21.7519C21.9766 33.0194 22.1969 32.9574 22.3884 32.84C22.58 32.7226 22.7352 32.5544 22.8369 32.3541L26.8129 24.4888C26.915 24.2888 27.0703 24.1208 27.2618 24.0036C27.4532 23.8863 27.6734 23.8242 27.8979 23.8242C28.1225 23.8242 28.3426 23.8863 28.5341 24.0036C28.7256 24.1208 28.8809 24.2888 28.9829 24.4888L32.9616 32.3576C33.0628 32.557 33.2171 32.7246 33.4075 32.8419C33.5978 32.9592 33.8168 33.0218 34.0404 33.0227L41.5654 33.0603C41.7929 33.0612 42.0154 33.1263 42.2074 33.2482C42.3994 33.37 42.5531 33.5437 42.6507 33.7491C42.7482 33.9545 42.7858 34.1834 42.759 34.4092C42.7322 34.635 42.6421 34.8487 42.4991 35.0255V35.0255Z" fill="#FE9D00"/>
</svg>
