<svg width="56" height="56" viewBox="0 0 56 56" fill="none" xmlns="http://www.w3.org/2000/svg">
<path opacity="0.5" d="M28.005 1.11704e-05C22.3973 -0.00499857 16.9175 1.67519 12.2763 4.82265C7.63507 7.97011 4.04664 12.4396 1.97645 17.6514C-0.0937464 22.8632 -0.550184 28.5769 0.666326 34.0513C1.88284 39.5257 4.71618 44.5083 8.79884 48.3527C8.90021 48.4624 9.00969 48.5643 9.12637 48.6576C14.2794 53.3802 21.0153 56 28.005 56C34.9947 56 41.7306 53.3802 46.8837 48.6576C47.0003 48.5642 47.1098 48.4623 47.2112 48.3527C51.2905 44.5077 54.1208 39.5259 55.3354 34.0531C56.5499 28.5804 56.0927 22.8689 54.0229 17.6592C51.9531 12.4494 48.3662 7.98142 43.7271 4.83442C39.0881 1.68742 33.6107 0.00648008 28.005 0.00947316V1.11704e-05Z" fill="#F4F5FF"/>
<path d="M28.0038 1.16676C22.3964 1.16185 16.9168 2.80704 12.2758 5.88892C7.63475 8.97081 4.04646 13.3472 1.97636 18.4504C-0.0937424 23.5537 -0.550161 29.1483 0.666298 34.5087C1.88276 39.869 4.71598 44.7478 8.79846 48.5121C8.89983 48.6195 9.0093 48.7193 9.12598 48.8106C14.2788 53.4349 21.0144 56.0001 28.0038 56.0001C34.9932 56.0001 41.7288 53.4349 46.8817 48.8106C46.9983 48.7192 47.1077 48.6194 47.2092 48.5121C51.2883 44.7472 54.1185 39.8692 55.333 34.5104C56.5475 29.1517 56.0903 23.5593 54.0206 18.458C51.9509 13.3567 48.3641 8.98189 43.7253 5.90045C39.0864 2.81902 33.6093 1.17309 28.0038 1.17602V1.16676Z" fill="#F4F5FF"/>
<path d="M19.8085 31.7246C19.8519 31.7715 19.8987 31.8152 19.9485 31.8552C22.1478 33.8686 25.0213 34.9853 28.0029 34.9853C30.9845 34.9853 33.858 33.8686 36.0572 31.8552C36.1069 31.815 36.1537 31.7713 36.1973 31.7246C37.9377 30.0835 39.1452 27.9576 39.6635 25.6222C40.1817 23.2869 39.9868 20.8498 39.1039 18.6265C38.2211 16.4032 36.691 14.4963 34.7119 13.1527C32.7328 11.8091 30.3959 11.0908 28.0038 11.0908C25.6118 11.0908 23.2749 11.8091 21.2958 13.1527C19.3167 14.4963 17.7866 16.4032 16.9037 18.6265C16.0209 20.8498 15.826 23.2869 16.3442 25.6222C16.8624 27.9576 18.0699 30.0835 19.8103 31.7246H19.8085Z" fill="#FE9D00"/>
<path d="M22.4907 27.0271C23.9945 28.4034 25.9592 29.1667 27.9979 29.1667C30.0366 29.1667 32.0014 28.4034 33.5052 27.0271" stroke="white" stroke-width="2" stroke-linecap="round" stroke-linejoin="round"/>
<path d="M28.003 34.9873C23.8084 34.9871 19.6675 35.9308 15.8872 37.7486C12.1069 39.5664 8.78408 42.2117 6.16504 45.4883C6.97571 46.4993 7.85505 47.4534 8.7968 48.3436C8.89825 48.4532 9.00775 48.5551 9.12436 48.6484C14.2774 53.3711 21.0133 55.9909 28.003 55.9909C34.9927 55.9909 41.7286 53.3711 46.8817 48.6484C46.9982 48.555 47.1077 48.4531 47.2092 48.3436C48.151 47.4534 49.0303 46.4993 49.841 45.4883C47.222 42.2117 43.8991 39.5664 40.1188 37.7486C36.3385 35.9308 32.1976 34.9871 28.003 34.9873Z" fill="#0032E3"/>
<path d="M39.6966 45.6469L40.2697 46.3549C40.283 46.3713 40.2924 46.3905 40.2973 46.411C40.3022 46.4316 40.3025 46.4529 40.298 46.4736L40.0422 47.6618C40.0368 47.6875 40.0386 47.7142 40.0474 47.7389C40.0562 47.7636 40.0716 47.7855 40.0921 47.8019C40.1125 47.8184 40.137 47.8288 40.163 47.8321C40.189 47.8354 40.2154 47.8314 40.2393 47.8206L41.3458 47.3256C41.3641 47.3174 41.3839 47.3132 41.404 47.3132C41.424 47.3132 41.4438 47.3174 41.4621 47.3256L42.5662 47.8196C42.5901 47.8304 42.6166 47.8344 42.6427 47.831C42.6687 47.8276 42.6933 47.817 42.7137 47.8005C42.7341 47.7839 42.7496 47.7619 42.7583 47.7371C42.767 47.7122 42.7687 47.6855 42.7631 47.6597L42.5225 46.5807C42.5181 46.5613 42.5179 46.5413 42.5219 46.5218C42.5258 46.5024 42.5338 46.484 42.5453 46.4678L43.1389 45.6352C43.1539 45.614 43.1629 45.589 43.1647 45.563C43.1665 45.537 43.1611 45.511 43.1491 45.4879C43.1372 45.4647 43.119 45.4454 43.0968 45.4319C43.0745 45.4185 43.049 45.4114 43.023 45.4116H42.1231C42.0969 45.4116 42.0711 45.4044 42.0487 45.3906C42.0263 45.3768 42.0081 45.3571 41.9962 45.3336L41.5312 44.4112C41.5193 44.3877 41.5011 44.368 41.4787 44.3543C41.4563 44.3405 41.4306 44.3333 41.4043 44.3333C41.378 44.3333 41.3523 44.3405 41.3299 44.3543C41.3075 44.368 41.2893 44.3877 41.2774 44.4112L40.8121 45.334C40.8002 45.3574 40.7822 45.377 40.7599 45.3908C40.7377 45.4046 40.712 45.4119 40.6859 45.412L39.8058 45.4164C39.7792 45.4165 39.7531 45.4242 39.7307 45.4385C39.7082 45.4527 39.6903 45.4731 39.6788 45.4972C39.6674 45.5213 39.663 45.5481 39.6662 45.5746C39.6693 45.6011 39.6798 45.6262 39.6966 45.6469V45.6469Z" fill="#FE9D00"/>
</svg>
